<?xml version="1.0" encoding="UTF-8"?>
<svg id="Livello_1" data-name="Livello 1" xmlns="http://www.w3.org/2000/svg" viewBox="0 0 167.91 232.89">
  <defs>
    <style>
      .cls-1 {
        stroke-width: 0px;
      }
    </style>
  </defs>
  <path class="cls-1" d="m162.14,47.21v2.88c0,57.69,0,115.38,0,173.07q0,1.62,1.62,1.62c1,0,2,.03,3,0,.92-.04,1.16.42,1.15,1.25-.03,1.84-.06,3.68,0,5.52.04,1.09-.42,1.36-1.42,1.35-5.16-.06-10.31-.07-15.47-.09-36.46-.16-72.92-.31-109.38-.47-13.39-.06-26.79-.12-40.18-.15-1.08,0-1.51-.25-1.44-1.4.1-1.55.07-3.12.01-4.68-.03-.98.3-1.36,1.31-1.34,2.15.05,4.3.02,6.52.02V47.21c-2.04,0-3.99,0-5.93,0q-1.88,0-1.88-1.93c0-1.32.09-2.65-.02-3.96-.11-1.27.39-1.56,1.57-1.51,2.23.09,4.47.03,6.61.03.17-.68.26-1.25.45-1.8,1.38-4.13,2.76-8.26,4.2-12.37.28-.79.13-1.2-.55-1.67-3.74-2.53-7.45-5.11-11.15-7.69-.36-.25-.6-.66-.9-1,.46-.13.92-.38,1.38-.38,4.4-.03,8.8-.04,13.19,0,.9,0,1.33-.25,1.62-1.14,1.36-4.26,2.8-8.5,4.24-12.74.13-.38.44-.69.67-1.03.25.36.62.68.75,1.08,1.38,4.17,2.74,8.35,4.05,12.55.25.79.61,1.06,1.43,1.06,4.04.03,8.07.12,12.11.18,5.47.09,10.93.16,16.4.28.91.02,1.33-.25,1.61-1.14,1.37-4.26,2.8-8.5,4.24-12.74.13-.38.44-.69.67-1.03.25.36.61.68.74,1.08,1.38,4.17,2.74,8.35,4.05,12.55.25.79.62,1.05,1.44,1.06,9.55.05,19.11.12,28.66.22.84,0,1.18-.3,1.43-1.07,1.4-4.29,2.83-8.57,4.29-12.85.12-.37.46-.66.69-.99.23.33.57.63.69,1,1.37,4.18,2.73,8.36,4.05,12.55.25.81.6,1.14,1.49,1.14,9.51.04,19.03.12,28.54.22.87,0,1.26-.28,1.52-1.1,1.37-4.22,2.78-8.42,4.21-12.62.15-.44.52-.8.79-1.19.24.38.56.73.7,1.15,1.36,4.14,2.72,8.28,4.01,12.44.26.84.66,1.1,1.52,1.11,4.4.03,8.79.11,13.19.21.39,0,.77.24,1.15.37-.24.32-.43.73-.74.96-3.56,2.58-7.12,5.16-10.72,7.68-.77.54-.89,1-.58,1.87,1.41,3.99,2.76,8.01,4.08,12.03.27.81.63,1.14,1.52,1.12,2.4-.07,4.8,0,7.2-.07,1.02-.03,1.46.27,1.42,1.35-.07,1.84-.05,3.68,0,5.52.02.95-.36,1.28-1.28,1.25-1.43-.05-2.85-.01-4.49-.01Zm-57.78,177.57h1.57c17.87,0,35.74,0,53.61,0q1.71,0,1.71-1.77c0-35.9,0-71.79,0-107.69,0-21.75,0-43.49,0-65.24,0-2.16,0-2.16-2.1-2.16-49.37,0-98.74,0-148.1,0q-2.18,0-2.19,2.19c0,57.76,0,115.52,0,173.29v1.28h59.09v-65.29h36.41v65.39Zm-.78-.08v-64.66h-34.91v64.66h34.91Zm-19.66-178.39c22.5,0,45,0,67.51,0,4.76,0,9.51-.03,14.27.02,1.08.01,1.4-.32,1.32-1.36-.08-1.15-.11-2.33,0-3.47.12-1.25-.35-1.52-1.54-1.51-12.35.09-24.7.13-37.05.18-36.21.15-72.42.3-108.63.45-5.84.02-11.67.1-17.51.08-1.13,0-1.48.35-1.38,1.43.08.83.01,1.68.02,2.52q0,1.67,1.69,1.67c27.1,0,54.2,0,81.29,0Zm.02,179.37c-25.58,0-51.16,0-76.74,0-1.64,0-3.28.08-4.91-.02-1.16-.07-1.46.37-1.37,1.43.08.95.09,1.92,0,2.87-.11,1.09.33,1.33,1.36,1.33,5.84-.01,11.67.06,17.51.08,38.61.17,77.22.35,115.82.52,9.99.04,19.98.04,29.98.11,1.19,0,1.52-.36,1.44-1.49-.09-1.23-.07-2.48,0-3.71.05-.93-.31-1.16-1.18-1.13-2.04.05-4.08.02-6.11.02-25.26,0-50.52,0-75.78,0ZM21.49,2.11c-.09.01-.19.02-.28.03-.13.37-.27.74-.4,1.11-1.27,3.79-2.55,7.57-3.78,11.37-.28.87-.71,1.19-1.63,1.18-3.91-.04-7.83-.02-11.74-.02-.41,0-.83.04-1.55.07.57.43.87.67,1.18.89,3.15,2.18,6.27,4.42,9.48,6.51,1.18.77,1.34,1.48.87,2.75-1.28,3.49-2.42,7.02-3.6,10.54-.13.39-.24.8-.44,1.47.56-.36.86-.53,1.14-.74,3.15-2.26,6.32-4.49,9.44-6.79.84-.62,1.47-.66,2.33-.02,3.15,2.33,6.35,4.58,9.53,6.86.26.19.55.34,1.07.65-.21-.7-.33-1.12-.47-1.52-1.23-3.63-2.43-7.27-3.71-10.89-.34-.96-.16-1.52.68-2.1,3.15-2.19,6.25-4.45,9.36-6.69.33-.24.65-.51,1.22-.95-.73-.05-1.12-.08-1.5-.09-3.83-.07-7.67-.16-11.5-.17-1.02,0-1.5-.36-1.79-1.33-.83-2.75-1.74-5.48-2.63-8.21-.42-1.31-.86-2.62-1.29-3.93Zm22.2,13.92c-.02.09-.05.17-.07.26.3.23.6.47.91.69,3.25,2.25,6.49,4.53,9.77,6.73.89.6,1.07,1.17.71,2.18-1.29,3.61-2.48,7.25-3.71,10.89-.13.4-.25.81-.46,1.49.55-.35.85-.52,1.13-.72,3.09-2.21,6.21-4.37,9.23-6.66,1.07-.8,1.8-.74,2.83.03,3.04,2.27,6.15,4.45,9.24,6.65.27.19.56.35,1.08.66-.21-.69-.32-1.1-.45-1.5-1.23-3.63-2.43-7.27-3.7-10.89-.33-.95-.2-1.51.66-2.11,3.15-2.19,6.25-4.45,9.36-6.68.34-.24.66-.5,1.25-.95-.73-.05-1.11-.1-1.49-.1-3.83-.07-7.67-.16-11.5-.17-1,0-1.51-.33-1.81-1.31-1.14-3.7-2.36-7.38-3.55-11.06-.12-.38-.28-.76-.52-1.41-.25.7-.4,1.06-.52,1.44-1.23,3.67-2.5,7.33-3.66,11.03-.36,1.14-.86,1.58-2.09,1.55-3.79-.08-7.59-.03-11.38-.03h-1.24ZM104.04,2.38c-.09,0-.19-.02-.28-.03-.14.36-.28.72-.41,1.08-1.27,3.79-2.56,7.56-3.78,11.37-.29.91-.72,1.27-1.7,1.25-3.91-.05-7.83-.02-11.74-.02-.4,0-.81.04-1.53.08.61.45.92.69,1.25.91,3.22,2.23,6.42,4.49,9.68,6.65.95.63,1.1,1.22.73,2.28-1.29,3.61-2.48,7.25-3.71,10.89-.13.38-.22.77-.42,1.45.56-.37.82-.54,1.08-.72,3.15-2.26,6.32-4.49,9.43-6.79.88-.65,1.54-.71,2.43-.03,2.49,1.87,5.05,3.66,7.58,5.47.9.64,1.8,1.27,3.01,2.12-.23-.75-.34-1.16-.47-1.56-1.24-3.67-2.46-7.35-3.74-11-.32-.91-.16-1.45.64-2.01,3.18-2.22,6.31-4.5,9.46-6.76.33-.23.63-.51,1.17-.95-.74-.04-1.14-.06-1.53-.07-3.71-.06-7.43-.18-11.14-.15-1.25,0-1.84-.39-2.2-1.61-1.2-3.97-2.52-7.9-3.79-11.85Zm29.34,35.89c.55-.35.85-.53,1.13-.73,3.05-2.18,6.14-4.33,9.14-6.58,1.07-.8,1.83-.87,2.93-.04,3.03,2.29,6.15,4.45,9.23,6.66.27.19.56.34,1.07.66-.21-.69-.32-1.1-.46-1.51-1.23-3.63-2.43-7.27-3.7-10.89-.34-.95-.19-1.52.66-2.1,3.15-2.19,6.25-4.45,9.36-6.69.34-.24.66-.5,1.24-.95-.73-.05-1.11-.09-1.49-.1-3.83-.07-7.67-.16-11.5-.17-1.01,0-1.5-.34-1.8-1.31-1.14-3.7-2.36-7.38-3.55-11.06-.12-.38-.28-.75-.52-1.41-.25.7-.4,1.07-.52,1.44-1.26,3.75-2.54,7.49-3.74,11.25-.3.95-.74,1.33-1.77,1.32-3.87-.06-7.75-.02-11.62-.02-.41,0-.83,0-1.24,0,.24.5.53.74.85.95,3.25,2.25,6.49,4.53,9.77,6.73.9.6,1.06,1.17.7,2.18-1.29,3.61-2.48,7.25-3.71,10.89-.13.4-.25.81-.45,1.49Zm-98.76,1.36c4.7,0,9.45.02,14.2-.04.31,0,.76-.5.89-.86,1.5-4.3,2.94-8.62,4.43-12.93.24-.68.13-1.07-.48-1.49-3.73-2.54-7.45-5.1-11.14-7.7-.72-.51-1.2-.44-1.88.06-3.32,2.43-6.66,4.85-10.04,7.18-.88.61-.94,1.14-.62,2.07,1.59,4.56,3.11,9.14,4.65,13.71Zm48.65-.07v-.05c2.16,0,4.32-.02,6.48.01.7.01,1.07-.21,1.31-.91,1.42-4.29,2.88-8.56,4.35-12.83.21-.61.18-1.01-.41-1.41-3.77-2.56-7.51-5.16-11.25-7.77-.56-.39-.96-.33-1.49.06-3.53,2.56-7.06,5.1-10.63,7.61-.65.46-.73.87-.48,1.6,1.45,4.19,2.88,8.39,4.26,12.61.27.81.63,1.14,1.52,1.11,2.12-.07,4.24-.02,6.36-.02Zm41.23-.21v-.03c2.2,0,4.4-.03,6.59.02.73.01,1.07-.26,1.29-.93,1.4-4.21,2.82-8.41,4.26-12.6.23-.68.14-1.07-.47-1.49-3.7-2.52-7.38-5.06-11.05-7.63-.62-.43-1.06-.46-1.69,0-3.48,2.54-6.99,5.05-10.52,7.54-.62.44-.81.82-.55,1.58,1.46,4.19,2.87,8.39,4.27,12.6.25.75.65.97,1.4.95,2.16-.04,4.31-.01,6.47-.01Zm-90.98.36c-.2-.27-.27-.41-.37-.49-3.73-2.68-7.44-5.37-11.21-8-.29-.2-1-.11-1.33.12-3.63,2.54-7.22,5.14-10.82,7.73-.23.17-.43.39-.7.65h24.43Zm40.72-.19c-.22-.26-.29-.39-.41-.48-3.53-2.54-7.05-5.09-10.62-7.57-.3-.21-1.07-.09-1.42.16-3.37,2.35-6.7,4.76-10.03,7.16-.26.18-.48.42-.83.73h23.31Zm18.09-.24h22.68c-3.5-2.82-7.06-5.38-10.63-7.91-.22-.16-.74-.17-.95-.02-3.64,2.57-7.26,5.18-11.09,7.93Zm63.84-.1c-.18-.31-.21-.4-.26-.44-3.4-2.45-6.79-4.91-10.22-7.31-.27-.19-.94-.11-1.24.1-3.33,2.33-6.63,4.72-9.93,7.1-.19.14-.32.35-.5.56h22.15Z"/>
  <path class="cls-1" d="m150.77,94.67h-28.56v-35.8h28.56v35.8Zm-27.88-35.18v34.47h27.23v-34.47h-27.23Z"/>
  <path class="cls-1" d="m122.18,140.92v-35.76h28.6v35.76h-28.6Zm27.98-35.08h-27.27v34.43h27.27v-34.43Z"/>
  <path class="cls-1" d="m51.27,105.18v35.76h-28.6v-35.76h28.6Zm-.71,35.12v-34.47h-27.23v34.47h27.23Z"/>
  <path class="cls-1" d="m69.7,105.13h28.56v35.8h-28.56v-35.8Zm27.93.71h-27.27v34.43h27.27v-34.43Z"/>
  <path class="cls-1" d="m22.63,200.65v-35.76h28.6v35.76h-28.6Zm27.98-35.08h-27.27v34.43h27.27v-34.43Z"/>
  <path class="cls-1" d="m122.18,200.65v-35.76h28.6v35.76h-28.6Zm.71-35.12v34.46h27.22v-34.46h-27.22Z"/>
  <path class="cls-1" d="m51.27,58.88v35.75h-28.6v-35.75h28.6Zm-27.98,35.08h27.27v-34.43h-27.27v34.43Z"/>
  <path class="cls-1" d="m69.7,58.83h28.56v35.8h-28.56v-35.8Zm27.88,35.18v-34.47h-27.23v34.47h27.23Z"/>
  <path class="cls-1" d="m139.87,65.03c-.44.06-.89.17-1.33.17-3.4.01-6.8.03-10.19,0-.9-.01-1.26.19-1.25,1.18.04,6.83.04,13.67,0,20.5,0,.99.34,1.2,1.25,1.19,5.36-.03,10.71-.04,16.07,0,1.03,0,1.27-.34,1.26-1.31-.04-6-.02-11.99-.01-17.99,0-.47.12-.94.18-1.41.14,0,.28-.02.42-.03.1.36.28.73.28,1.09.02,6.44,0,12.87.02,19.31,0,.86-.28,1.22-1.18,1.22-6-.02-11.99-.02-17.99,0-.89,0-1.18-.36-1.18-1.22.02-7.39.02-14.79,0-22.18,0-.93.32-1.28,1.26-1.27,3.76.03,7.51,0,11.27.02.38,0,.77.15,1.15.23,0,.16-.01.32-.02.48Z"/>
  <path class="cls-1" d="m146.3,113.66c.08.38.23.76.23,1.14.01,6.4,0,12.79.02,19.19,0,.92-.3,1.28-1.25,1.28-5.96-.03-11.91-.03-17.87,0-.96,0-1.24-.38-1.24-1.29.02-7.35.03-14.71,0-22.06,0-.99.34-1.33,1.33-1.32,3.72.04,7.43.01,11.15.02.4,0,.8.12,1.2.18.01.16.02.31.03.47-.44.08-.88.22-1.32.23-3.44.02-6.88.04-10.31,0-.86-.01-1.19.21-1.18,1.13.03,6.87.04,13.75,0,20.62,0,.93.34,1.13,1.19,1.12,5.4-.03,10.79-.04,16.19,0,1,0,1.19-.35,1.19-1.25-.03-6-.02-11.99,0-17.99,0-.48.1-.97.16-1.45.16,0,.33-.02.49-.03Z"/>
  <path class="cls-1" d="m46.79,113.67c.07.4.19.79.19,1.19.01,6.36,0,12.71.02,19.07,0,.97-.29,1.35-1.3,1.35-5.92-.03-11.83-.03-17.75,0-1.01,0-1.31-.37-1.31-1.34.03-7.31.03-14.63,0-21.94,0-1.04.33-1.4,1.38-1.39,3.72.05,7.43.01,11.15.03.38,0,.77.15,1.15.23,0,.14,0,.28.01.41-.41.08-.83.23-1.24.23-3.44.02-6.88.04-10.31,0-.9-.01-1.26.19-1.25,1.19.04,6.83.04,13.67,0,20.5,0,.99.34,1.2,1.25,1.19,5.36-.03,10.71-.04,16.07,0,1.03,0,1.26-.34,1.26-1.31-.04-6-.02-11.99-.01-17.99,0-.47.12-.94.18-1.42.17,0,.34,0,.51,0Z"/>
  <path class="cls-1" d="m93.81,113.67c.07.4.19.79.19,1.19.01,6.36,0,12.71.02,19.07,0,.97-.29,1.35-1.3,1.35-5.92-.03-11.83-.03-17.75,0-1.01,0-1.31-.37-1.31-1.34.03-7.31.03-14.63,0-21.94,0-1.04.33-1.4,1.38-1.39,3.72.05,7.43.01,11.15.03.38,0,.77.15,1.15.23,0,.14,0,.28.01.41-.41.08-.83.23-1.24.23-3.44.02-6.88.04-10.31,0-.9-.01-1.26.19-1.25,1.19.04,6.83.04,13.67,0,20.5,0,.99.34,1.2,1.25,1.19,5.36-.03,10.71-.04,16.07,0,1.03,0,1.26-.34,1.26-1.31-.04-6-.02-11.99-.01-17.99,0-.47.12-.94.18-1.42.17,0,.34,0,.51,0Z"/>
  <path class="cls-1" d="m40.33,171.01c-.42.08-.84.21-1.26.22-3.44.02-6.88.04-10.31,0-.96-.01-1.22.29-1.21,1.23.04,6.83.03,13.67,0,20.5,0,.9.27,1.16,1.16,1.16,5.4-.04,10.79-.04,16.19,0,.95,0,1.23-.27,1.22-1.22-.04-6.04-.02-12.07-.01-18.11,0-.46.12-.93.19-1.39.14,0,.29,0,.43,0,.09.37.25.75.25,1.12.02,6.4,0,12.79.03,19.19,0,1.01-.37,1.31-1.34,1.31-5.88-.03-11.75-.03-17.63,0-1.04,0-1.4-.33-1.39-1.38.03-7.31.03-14.63,0-21.94,0-.85.16-1.36,1.17-1.35,3.84.04,7.67.01,11.51.02.33,0,.65.12.98.18,0,.16,0,.32.01.48Z"/>
  <path class="cls-1" d="m139.88,171.01c-.42.07-.85.21-1.27.21-3.44.02-6.88.04-10.31-.01-.97-.02-1.21.31-1.21,1.23.03,6.79.04,13.59,0,20.38,0,1.01.3,1.28,1.29,1.27,5.36-.04,10.71-.04,16.07,0,.96,0,1.22-.29,1.21-1.23-.04-6.04-.02-12.07,0-18.11,0-.46.13-.92.19-1.38.15,0,.29,0,.43,0,.09.38.25.75.25,1.13.02,6.4,0,12.79.03,19.19,0,1.01-.39,1.3-1.35,1.3-5.88-.03-11.75-.03-17.63,0-1.05,0-1.39-.35-1.38-1.39.03-7.31.03-14.63,0-21.94,0-.85.17-1.35,1.18-1.34,3.84.04,7.67.01,11.51.02.33,0,.65.12.98.18,0,.16,0,.32,0,.48Z"/>
  <path class="cls-1" d="m40.33,64.98c-.42.08-.84.21-1.26.22-3.44.02-6.88.04-10.31-.01-.96-.01-1.22.29-1.21,1.23.03,6.83.03,13.67,0,20.5,0,.9.27,1.16,1.16,1.15,5.4-.04,10.79-.04,16.19,0,.95,0,1.23-.28,1.22-1.22-.04-6.04-.02-12.07-.01-18.11,0-.46.12-.92.19-1.38.14,0,.29,0,.43-.01.09.37.25.75.25,1.12.02,6.4,0,12.79.03,19.19,0,1.01-.38,1.31-1.34,1.31-5.88-.03-11.75-.03-17.63,0-1.04,0-1.39-.34-1.39-1.39.03-7.31.03-14.63,0-21.94,0-.85.16-1.36,1.17-1.35,3.84.04,7.67.01,11.51.02.33,0,.65.12.98.18,0,.16,0,.32.01.48Z"/>
  <path class="cls-1" d="m93.77,67.36c.08.38.23.76.23,1.15.01,6.4,0,12.79.02,19.19,0,.92-.31,1.28-1.25,1.27-5.96-.03-11.91-.03-17.87,0-.96,0-1.23-.39-1.23-1.29.02-7.35.03-14.71,0-22.06,0-1,.35-1.33,1.33-1.32,3.72.04,7.43.01,11.15.02.4,0,.79.12,1.19.19.01.16.02.31.03.47-.44.08-.88.22-1.32.23-3.44.02-6.88.04-10.31,0-.87-.01-1.18.22-1.18,1.14.03,6.87.04,13.75,0,20.62,0,.94.34,1.13,1.19,1.12,5.4-.03,10.79-.04,16.19,0,1,0,1.19-.36,1.18-1.26-.03-6-.02-11.99,0-17.99,0-.48.1-.97.16-1.45.16,0,.33-.02.49-.02Z"/>
</svg>