<?xml version="1.0" encoding="UTF-8"?>
<svg id="Livello_1" data-name="Livello 1" xmlns="http://www.w3.org/2000/svg" viewBox="0 0 353.08 295.37">
  <defs>
    <style>
      .cls-1 {
        stroke-width: 0px;
      }
    </style>
  </defs>
  <path class="cls-1" d="m255.19,262.81c-.05-.54-.15-1.08-.15-1.62,0-15.63,0-31.26,0-46.89q0-1.67-1.69-1.67c-58.17,0-116.34,0-174.51,0q-1.62,0-1.62,1.62c0,22.39,0,44.78,0,67.16q0,1.56,1.56,1.56c54.25,0,108.5,0,162.75,0h1.45c.02-.5.06-.92.06-1.34,0-19.15-.01-38.3.03-57.45,0-1.25-.37-1.51-1.55-1.51-49.93.03-99.87.02-149.8.03q-1.55,0-1.55,1.57c0,15.63,0,31.26,0,46.89,0,.57-.08,1.13-.12,1.7-.17.02-.35.03-.52.05-.08-.46-.24-.93-.24-1.39-.02-8.6-.01-17.19-.01-25.79,0-7.44,0-14.87,0-22.31,0-1.61.02-1.63,1.59-1.63,50.49,0,100.99,0,151.48,0,1.57,0,1.59.02,1.59,1.63,0,19.31,0,38.62,0,57.93,0,.47,0,.95,0,1.61h1.48c30.22,0,60.45,0,90.67.03,1.27,0,1.5-.4,1.49-1.56-.03-44.66-.02-89.31-.02-133.97,0-.59.08-1.18.13-1.76l.58-.03c.06.52.17,1.05.17,1.57,0,14.67,0,29.34,0,44.02,0,30.18,0,60.37,0,90.55q0,2.04-2.02,2.04c-85.95,0-171.9,0-257.85,0-21.91,0-43.82,0-65.72,0q-1.78,0-1.78-1.8c0-27.19,0-54.37.02-81.56,0-.51.31-1.01.48-1.52.13.49.38.99.38,1.48.02,26.95.02,53.89.02,80.84q0,1.66,1.7,1.66c20.35,0,40.7,0,61.05,0q1.6,0,1.61-1.64c0-22.59,0-45.18,0-67.76q0-1.84,1.85-1.85c58.61,0,117.22,0,175.82,0q1.93,0,1.93,1.89c0,15.87,0,31.74,0,47.61,0,.52-.09,1.05-.14,1.57-.2,0-.4.01-.59.02Z"/>
  <path class="cls-1" d="m352.19,294.48c0-54.27,0-108.34,0-162.41l.69-.06c.07.52.19,1.04.19,1.55.01,13.19,0,26.39,0,39.58,0,39.9,0,79.8,0,119.7,0,2.49-.04,2.53-2.54,2.53-57.89,0-115.78,0-173.67,0-57.81,0-115.62,0-173.43,0H.04v-2.48c0-32.94.01-65.89-.04-98.83,0-1.61.52-2.39,1.91-3.1,5.22-2.69,10.37-5.52,15.56-8.27.64-.34.89-.65.84-1.44-.11-1.99-.04-4-.04-5.99,0-38.98,0-77.96,0-116.94,0-3.6,0-7.2,0-10.79,0-1.53.03-1.56,1.54-1.56,12.03,0,24.07,0,36.1,0,1.63,0,1.63,0,1.63,1.71,0,27.15,0,54.29,0,81.44,0,10.15,0,20.31,0,30.46v1.65c17.61-9.37,34.93-18.72,52.31-27.95.11.17.23.35.34.52-.35.27-.68.6-1.07.81-7.39,3.97-14.8,7.93-22.2,11.89-28.3,15.14-56.6,30.29-84.91,45.41-.82.44-1.11.93-1.11,1.86.03,33.1.03,66.21-.01,99.31,0,1.38.58,1.42,1.63,1.42,73.84-.02,147.69-.01,221.53-.01,42.18,0,84.36,0,126.53,0h1.59ZM19.17,181.73c.67-.34,1.09-.54,1.5-.76,11.59-6.2,23.17-12.42,34.78-18.59.9-.48,1.22-1,1.22-2.02-.03-33.97-.03-67.94,0-101.91,0-1.19-.27-1.55-1.51-1.54-11.39.05-22.78.03-34.17.03-2.03,0-1.82-.19-1.83,1.77,0,40.49,0,80.97,0,121.46v1.57Zm18.61-125.69c5.91,0,11.82-.02,17.73.02.89,0,1.18-.26,1.16-1.15-.05-2.31-.05-4.63,0-6.95.02-.82-.22-1.11-1.08-1.11-11.78.02-23.56.02-35.34,0-.83,0-1.12.25-1.1,1.09.05,2.24.07,4.47,0,6.71-.04,1.08.26,1.43,1.39,1.42,5.75-.06,11.5-.03,17.25-.03Z"/>
  <path class="cls-1" d="m116.05,143.35c-.64.92-102.75,55.82-103.93,55.54.43-.3.83-.66,1.29-.9,6.68-3.61,13.37-7.2,20.05-10.8,26.98-14.53,53.96-29.05,80.95-43.57.48-.26,1.01-.43,1.51-.64.04.12.09.25.13.37Z"/>
  <path class="cls-1" d="m214.19,185.67c.07-.19.09-.45.21-.52,31.88-17.23,63.77-34.44,95.66-51.64.12-.06.35.07.54.12-.53,1.01-95.31,52.17-96.41,52.04Z"/>
  <path class="cls-1" d="m208.99,134.61c-.92,1.17-93.61,51.16-94.59,51.06.07-.19.07-.46.19-.52,31.23-16.91,62.47-33.8,93.72-50.68.12-.07.35.06.67.13Z"/>
  <path class="cls-1" d="m124.78,192.38c.33-.8,80.2-44.58,89.47-49.03.3-.15.67-.16,1.18-.27-.68,1.21-89.66,49.44-90.65,49.3Z"/>
  <path class="cls-1" d="m317.55,142.35c-.55.94-84.75,47.73-85.94,47.44.4-.29.77-.63,1.19-.87,7.36-4.11,14.74-8.2,22.11-12.3,20.33-11.31,40.65-22.62,60.98-33.92.48-.27,1.01-.46,1.52-.69l.15.34Z"/>
  <path class="cls-1" d="m23.37.19c-.14.45-.23.92-.41,1.34-1.77,4.08-2.93,8.27-2.59,12.77.19,2.58,1.07,4.87,2.67,6.93.98,1.25,1.97,2.53,2.68,3.94,1.76,3.55.94,8.06-1.83,10.88-.22.23-.53.38-.8.56-.1-.09-.2-.17-.3-.26.21-.36.38-.75.63-1.08,3.14-3.92,3.35-8.36.02-12.13-4.06-4.61-4.71-9.8-3.4-15.44.54-2.32,1.48-4.54,2.27-6.79.12-.35.45-.62.68-.92.12.06.25.12.37.19Z"/>
  <path class="cls-1" d="m36.43,36.31c.24-.37.45-.75.72-1.09,2.99-3.74,3.34-8.17.18-11.74-4.91-5.54-4.95-11.64-3.01-18.17.44-1.49,1.07-2.92,1.65-4.36.14-.35.45-.64.67-.95.13.06.26.12.39.18-.13.45-.22.91-.4,1.33-1.76,4.04-2.91,8.19-2.61,12.65.18,2.71,1.12,5.1,2.81,7.24.98,1.24,1.96,2.55,2.64,3.97,1.67,3.5.76,8.09-1.98,10.76-.21.2-.49.32-.73.48-.11-.1-.22-.2-.33-.3Z"/>
  <path class="cls-1" d="m50.12,36.33c.23-.36.43-.76.69-1.09,3-3.75,3.37-8.16.21-11.74-4.99-5.63-4.95-11.8-2.97-18.4.42-1.41,1.02-2.77,1.58-4.13.15-.36.44-.65.67-.97.14.06.27.11.41.17-.13.44-.21.91-.39,1.32-1.79,4.11-2.96,8.35-2.6,12.89.2,2.53,1.07,4.79,2.64,6.82,1.02,1.32,2.07,2.67,2.79,4.15,1.69,3.49.77,8.1-1.96,10.76-.22.21-.53.33-.79.49-.09-.09-.18-.18-.27-.28Z"/>
</svg>