<?xml version="1.0" encoding="UTF-8"?>
<svg id="Livello_1" data-name="Livello 1" xmlns="http://www.w3.org/2000/svg" viewBox="0 0 462.1 441.16">
  <defs>
    <style>
      .cls-1 {
        stroke-width: 0px;
      }
    </style>
  </defs>
  <path class="cls-1" d="m203.59,49.26c3.79,0,7.5,0,11.22,0,4.48,0,8.96-.03,13.43.02,1.09.01,1.41-.29,1.41-1.4-.04-15.43-.03-30.86-.02-46.29,0-.52.1-1.03.15-1.55.17-.01.35-.02.52-.04.07.48.21.95.21,1.43.01,11.63,0,23.27,0,34.9,0,3.84.05,7.68-.03,11.51-.02,1.19.37,1.45,1.49,1.44,9.19-.04,18.39-.03,27.58-.02,1.65,0,1.65,0,1.65,1.68,0,5.52.03,11.03-.03,16.55-.01,1.16.32,1.46,1.47,1.46,18.55-.04,37.1-.03,55.65-.03q1.92,0,1.92,1.9c0,17.79-.03,35.58-.03,53.37,0,33.38.02,66.76.02,100.14,0,.56-.08,1.13-.13,1.69-.18.01-.36.02-.54.04-.08-.47-.22-.94-.22-1.42-.01-7.76-.01-15.51-.01-23.27,0-43.3,0-86.59,0-129.89q0-1.66-1.69-1.67c-60.33,0-120.65,0-180.98,0q-1.61,0-1.61,1.63c0,31.74,0,63.49,0,95.23q0,1.98-1.96,1.98c-34.58,0-69.16,0-103.74,0q-1.76,0-1.76,1.72c0,83.67,0,167.35,0,251.02,0,.48.04.97-.03,1.44-.03.2-.28.37-.44.55-.14-.2-.36-.37-.41-.59-.07-.3-.02-.64-.02-.96,0-84.11,0-168.23,0-252.34q0-1.73,1.72-1.74c34.66,0,69.32,0,103.98,0q1.76,0,1.76-1.72c0-31.66,0-63.33,0-94.99q0-2.12,2.18-2.12c21.83,0,43.66,0,65.48,0q1.66,0,1.66-1.7c0-5.84,0-11.67,0-17.51,0-.11.05-.22.12-.46Zm28.63,19.67c8.95,0,17.9-.01,26.85.02.98,0,1.29-.26,1.29-1.27-.05-5.43-.05-10.87,0-16.3,0-1.05-.37-1.24-1.32-1.24-17.78.02-35.56.03-53.33,0-1.04,0-1.36.26-1.35,1.33.05,5.31.06,10.63,0,15.94-.01,1.17.24,1.56,1.5,1.55,8.79-.06,17.58-.03,26.37-.03Z"/>
  <path class="cls-1" d="m0,440.44c.5-.06,1-.17,1.5-.17,8.04,0,16.07.02,24.11.02,50.33,0,100.66-.02,150.99-.03,1.92,0,1.7.16,1.7-1.77,0-45.93,0-91.87,0-137.8q0-1.96,1.98-1.96c32.9,0,65.8,0,98.7,0q1.93,0,1.93,1.89c0,45.93,0,91.87,0,137.8v1.92h181.13c.02.19.05.37.07.56-.43.09-.86.25-1.29.25-4.88.02-9.75.01-14.63.01-138.56,0-277.12,0-415.67,0-9.63,0-19.27,0-28.9,0-.53,0-1.05-.09-1.58-.14l-.03-.58Zm280.01-.18c0-.59,0-1.02,0-1.45,0-45.85,0-91.7,0-137.55q0-1.63-1.61-1.63c-32.54,0-65.08,0-97.61,0q-1.59,0-1.59,1.65c0,27.1,0,54.2,0,81.3,0,18.75.01,37.49-.02,56.24,0,1.16.31,1.5,1.46,1.46,2.88-.08,5.75-.03,8.63-.03,29.7,0,59.4,0,89.1,0,.51,0,1.01,0,1.64,0Z"/>
  <path class="cls-1" d="m334.86,124.58c.63,0,1.11,0,1.58,0,31.1,0,62.2,0,93.31,0q1.8,0,1.8,1.77c0,100.7,0,201.4-.02,302.1,0,.48-.26.97-.4,1.45-.16-.5-.46-1-.46-1.5-.02-100.3-.02-200.6-.02-300.9,0-2.32.31-2.03-2.04-2.03-30.74,0-61.48,0-92.23-.02-.52,0-1.33.36-1.52-.88Z"/>
  <path class="cls-1" d="m126.38,193.52v175.61H46.2v-175.61h80.18Zm-79.51.61v174.32h78.8v-174.32H46.87Z"/>
  <path class="cls-1" d="m232.13,226.29c22.06,0,44.13,0,66.19-.02,1.18,0,1.57.26,1.57,1.51-.04,14.75-.04,29.5,0,44.25,0,1.13-.28,1.49-1.46,1.49-44.29-.03-88.58-.03-132.86,0-1.07,0-1.45-.23-1.44-1.39.04-14.83.04-29.66,0-44.49,0-1.18.43-1.37,1.46-1.37,22.18.02,44.37.02,66.55.02Zm66.78.99h-133.78v45.22h133.78v-45.22Z"/>
  <path class="cls-1" d="m417.59,381.23c-.04-.56-.12-1.12-.12-1.68,0-29.82,0-59.64,0-89.47,0-49.81,0-99.62,0-149.43q0-1.74-1.75-1.74c-23.91,0-47.81,0-71.72,0-.56,0-1.11-.09-1.67-.13-.01-.18-.02-.37-.03-.55.52-.07,1.03-.19,1.55-.19,13.63-.01,27.26,0,40.9,0,10.63,0,21.27,0,31.9,0q1.71,0,1.71,1.75c0,79.99,0,159.98,0,239.97,0,.5-.11,1.01-.17,1.51-.2,0-.4-.01-.59-.02Z"/>
  <path class="cls-1" d="m402.02,374.05c-.05-.54-.15-1.08-.15-1.62,0-18.91,0-37.81,0-56.72,0-53.6,0-107.2,0-160.81,0-2.07.21-1.84-1.88-1.84-19.79,0-39.57,0-59.36,0-.55,0-1.1-.09-1.66-.14-.01-.18-.02-.37-.03-.55.48-.07.96-.2,1.44-.2,10.59-.01,21.19,0,31.78,0,9.51,0,19.03,0,28.54,0,2.07,0,2.06,0,2.06,2.05,0,72.59,0,145.18,0,217.77v2.04c-.25,0-.49.02-.74.03Z"/>
  <path class="cls-1" d="m327.42,255.31c-.05-.54-.15-1.08-.15-1.62,0-20.27,0-40.53,0-60.8,0-43.01,0-86.03,0-129.04q0-1.7-1.66-1.7c-17.87,0-35.74,0-53.61,0-.55,0-1.09-.09-1.64-.14,0-.19-.01-.38-.02-.57.53-.06,1.05-.17,1.58-.17,15.55,0,31.1,0,46.65,0,2.64,0,5.28,0,7.92,0,1.67,0,1.67,0,1.67,1.67,0,21.95,0,43.89,0,65.84,0,41.61,0,83.23,0,124.84,0,.56-.08,1.13-.12,1.69l-.61.02Z"/>
  <path class="cls-1" d="m287.69,122.55c-.26.1-.53.27-.79.27-41.09.01-82.17.01-123.26.01-.02-.22-.05-.43-.07-.65.46-.08.93-.24,1.39-.24,6.55-.02,13.11-.01,19.66-.01,33.77,0,67.54,0,101.32,0,.57,0,1.13.08,1.7.12.01.16.03.32.04.49Z"/>
  <path class="cls-1" d="m283.31,183.05c-38.69,0-77.37,0-116.06-.01-.26,0-.53-.18-.79-.27,0-.15,0-.3.01-.44.54-.05,1.07-.16,1.61-.16,17.51,0,35.01,0,52.52,0,20.38,0,40.77,0,61.15,0,.54,0,1.08.1,1.61.15-.02.24-.03.49-.05.73Z"/>
  <path class="cls-1" d="m271.27,422.5c-.05-.55-.14-1.1-.14-1.64,0-23.07,0-46.13,0-69.2,0-13.87,0-27.74,0-41.61q0-1.54-1.58-1.54c-25.74,0-51.49,0-77.23-.02-.53,0-1.07-.31-1.6-.48.53-.13,1.06-.38,1.59-.38,25.98-.02,51.97-.02,77.95-.02q1.77,0,1.77,1.81c0,37.14,0,74.27,0,111.41,0,.55-.09,1.11-.13,1.66-.2,0-.41,0-.61,0Z"/>
  <path class="cls-1" d="m119.95,280.65c0,26.38,0,52.76,0,79.15q0,1.72-1.66,1.73c-21.23,0-42.45,0-63.68.03-1.18,0-1.57-.26-1.56-1.51.03-52.96.03-105.93,0-158.89,0-1.25.39-1.51,1.57-1.51,21.27.03,42.53.02,63.8.03q1.54,0,1.54,1.61c0,26.46,0,52.92,0,79.39Zm-.99,79.92v-159.93H54.06v159.93h64.9Z"/>
</svg>