<?xml version="1.0" encoding="UTF-8"?>
<svg id="Livello_1" data-name="Livello 1" xmlns="http://www.w3.org/2000/svg" viewBox="0 0 422.04 139.82">
  <defs>
    <style>
      .cls-1 {
        stroke-width: 0px;
      }
    </style>
  </defs>
  <path class="cls-1" d="m30.65,32.03c.29-.2.56-.46.88-.59,12.6-5.19,25.2-10.38,37.82-15.53.64-.26,1.4-.3,2.11-.3,36.06-.01,72.12-.02,108.18,0,1.5,0,2.78-.34,4.09-1.06,8.56-4.75,17.16-9.44,25.72-14.19.88-.49,1.56-.48,2.44,0,9.38,5.09,18.77,10.17,28.19,15.19.87.46,1.96.74,2.94.74,35.66.04,71.32.03,106.99.06,1.12,0,2.31.22,3.36.62,12.21,4.64,24.41,9.34,36.61,14.03.3.11.63.19.87.38.22.17.33.48.49.73-.25.15-.48.38-.74.43-.39.08-.8.02-1.2.02-40.1,0-80.2,0-120.3.02-.63,0-1.55-.47-1.64.89-.09,1.37.63,1.33,1.6,1.33,36.94-.01,73.88-.01,110.82-.01.4,0,.84-.1,1.19.04.33.13.67.47.81.8.14.34.04.79.04,1.19,0,22.67,0,45.34,0,68.01,0,1.69,0,1.68,1.67,1.69,3.29.03,2.87-.42,2.88,2.85.02,7.64,0,15.27,0,22.91q0,1.76-1.82,1.76c-.8,0-1.6-.05-2.4.01-1.07.08-1.26-.47-1.25-1.39.03-5,.01-9.99.01-14.99,0-2.96-.07-5.92.03-8.87.04-1.26-.47-1.4-1.53-1.4-24.75.03-49.49.02-74.24.02-10.87,0-21.75,0-32.62,0q-1.74,0-1.74-1.72c0-8.24,0-16.47,0-24.71,0-1.54.03-1.57,1.52-1.58,3,0,6,.04,8.99-.02,1.12-.02,1.44.38,1.43,1.47-.04,6.92,0,13.83-.04,20.75,0,1.08.32,1.35,1.36,1.32,3.96-.12,7.91-.19,11.87-.2.99,0,1.29-.3,1.3-1.29.1-6.68.27-13.35.41-20.02.04-1.76.03-1.76,1.84-1.76,3,0,6,.03,9-.02,1.06-.02,1.38.37,1.38,1.4.04,6.64.15,13.27.18,19.91,0,.99.3,1.29,1.29,1.28,3.8-.05,7.6-.06,11.39,0,1.05.02,1.36-.27,1.35-1.34-.05-6.48-.03-12.95-.02-19.43,0-1.53.03-1.56,1.53-1.56,3.28,0,6.56,0,9.83,0,1.48,0,1.52.04,1.52,1.58,0,6.52.02,13.03-.02,19.55,0,1.04.2,1.47,1.37,1.44,3.96-.08,7.92-.06,11.87,0,1.03.01,1.26-.34,1.26-1.3-.04-6.64-.02-13.27-.02-19.91,0-1.57.02-1.59,1.62-1.59,3.04,0,6.08.04,9.11-.02,1.11-.02,1.46.35,1.45,1.45-.04,6.68,0,13.35-.04,20.03,0,1.05.27,1.38,1.34,1.35,2.59-.06,2.59,0,2.59-2.6,0-17.71,0-35.42-.01-53.13,0-.47-.17-1.31-.35-1.34-.85-.13-1.74-.07-2.6.04-.12.02-.21.71-.21,1.09-.01,6.24,0,12.47,0,18.71q0,1.87-1.83,1.87c-3.08,0-6.16,0-9.24,0-1.57,0-1.58-.02-1.58-1.63,0-6.52-.03-13.03.02-19.55,0-1.13-.35-1.4-1.42-1.39-3.96.06-7.92.05-11.87,0-.97-.01-1.21.31-1.21,1.24.03,6.84.02,13.67.02,20.51,0,1.51-.03,1.54-1.56,1.54-2.96,0-5.92-.04-8.87.02-1.15.03-1.53-.35-1.52-1.51.04-6.6,0-13.19.04-19.79,0-.98-.25-1.31-1.27-1.3-4.36.05-8.72.05-13.07,0-1.03-.01-1.37.24-1.36,1.33.05,6.72.03,13.43.02,20.15,0,1.53-.04,1.57-1.53,1.57-3.04,0-6.08,0-9.12,0-1.49,0-1.53-.04-1.53-1.57,0-6.88-.03-13.75.02-20.63,0-1.08-.33-1.34-1.36-1.33-3.96.06-7.92.05-11.87,0-1.02-.01-1.27.32-1.27,1.3.04,6.8.02,13.59.02,20.39,0,1.58-.02,1.6-1.62,1.6-3.08,0-6.16-.03-9.24.02-.98.01-1.34-.32-1.33-1.32.03-7.16.01-14.31.02-21.47,0-.4.12-.79.18-1.19.16,0,.33-.02.49-.03.07.48.2.96.2,1.43.01,6.76.03,13.51-.01,20.27,0,1.08.26,1.46,1.39,1.42,2.56-.08,5.12-.07,7.67,0,1.04.03,1.37-.25,1.36-1.33-.05-6.8-.03-13.59-.02-20.39,0-1.53.04-1.57,1.53-1.57,4.4,0,8.8,0,13.19,0,1.48,0,1.52.04,1.52,1.58,0,6.84.03,13.67-.03,20.51,0,1.18.35,1.48,1.49,1.45,2.6-.08,5.2-.06,7.79,0,.92.02,1.14-.3,1.14-1.18-.03-6.76-.02-13.51-.02-20.27,0-1.58.02-1.6,1.62-1.6,4.8,0,9.6.03,14.39-.02,1.1-.01,1.46.34,1.46,1.45-.04,6.6,0,13.19-.04,19.79,0,1.04.26,1.39,1.34,1.36,2.52-.08,5.04-.07,7.55,0,.98.02,1.3-.26,1.29-1.27-.04-6.8-.02-13.59-.02-20.39,0-1.61.02-1.63,1.59-1.63,4.36,0,8.72,0,13.07,0,1.57,0,1.58.02,1.58,1.64,0,6.52.03,13.03-.03,19.55,0,1.14.36,1.41,1.43,1.38,2.76-.07,5.52-.06,8.27,0,.98.02,1.2-.33,1.2-1.24-.03-6.36-.02-12.71-.02-19.07,0-1.51.03-1.53,1.56-1.54.8,0,1.6.01,2.4,0,.7-.01,1.04.3,1.01,1.01,0,.24,0,.48,0,.72,0,18.47,0,36.94,0,55.41q0,1.8-1.78,1.8c-.72,0-1.44,0-2.16,0q-1.76,0-1.76-1.82c0-6.44,0-12.87,0-19.31q0-1.65-1.71-1.65c-2.48,0-4.96.05-7.44-.02-1.03-.03-1.26.34-1.26,1.31.04,6.64.02,13.27.02,19.91,0,1.57-.02,1.59-1.62,1.59-4.4,0-8.8-.03-13.19.02-1.1.01-1.46-.35-1.45-1.45.04-6.6,0-13.19.04-19.79,0-1.05-.27-1.38-1.34-1.35-2.84.07-5.68.06-8.51,0-.99-.02-1.3.27-1.29,1.27.04,6.48.02,12.95.02,19.43,0,1.6-.02,1.62-1.59,1.62-4.2,0-8.4,0-12.59,0-1.56,0-1.57-.01-1.59-1.64-.07-6.52-.17-13.03-.19-19.55,0-1.13-.36-1.41-1.44-1.38-2.6.07-5.2.06-7.79,0-.94-.02-1.23.26-1.24,1.21-.11,6.76-.29,13.51-.39,20.26-.02,1.17-.32,1.61-1.56,1.61-4.4,0-8.79.12-13.19.19-1.5.02-1.53-.01-1.53-1.55,0-6.88-.02-13.75.02-20.63,0-1.07-.31-1.37-1.36-1.34-2.52.07-5.04.07-7.55,0-1.01-.03-1.28.31-1.27,1.29.04,7.84.04,15.67,0,23.51,0,1.17.34,1.46,1.48,1.45,19.19-.03,38.38-.02,57.57-.02,16.19,0,32.38,0,48.58,0q1.61,0,1.61-1.63c0-22.55,0-45.1,0-67.65q0-1.55-1.57-1.55c-36.98,0-73.96,0-110.94-.02-.61,0-1.71-.22-1.76-.47-.18-1.03-.08-2.13.05-3.19.02-.16.76-.32,1.16-.32,4.16-.02,8.32-.02,12.47-.02,35.5,0,71,0,106.51,0,.52,0,1.03,0,1.55,0,.02-.07.04-.14.06-.2-.3-.14-.58-.31-.89-.43-11.67-4.49-23.35-8.99-35.03-13.45-.62-.24-1.32-.36-1.98-.36-35.26-.02-70.52-.01-105.79-.01-.35,0-.7.03-1.15.26.38.23.75.47,1.14.68,5.56,3,11.11,6.01,16.68,8.98.85.45,1.19.98,1.19,1.96-.03,30.38-.02,60.77-.03,91.15,0,.44-.11.89-.17,1.33-.15.02-.31.03-.46.05-.08-.43-.24-.86-.24-1.3-.02-5.2-.01-10.39-.01-15.59,0-24.99,0-49.97.03-74.96,0-1.11-.34-1.7-1.32-2.22-6.01-3.18-11.96-6.45-17.97-9.63-.81-.43-1.84-.77-2.71-.67-5.02.56-9.43-.84-13.75-3.37-4.75-2.78-9.78-5.1-14.66-7.66-.72-.38-1.28-.36-2,.02-6.2,3.24-12.41,6.46-18.64,9.63-.71.36-1.61.67-2.38.58-4.54-.53-8.47.83-12.31,3.2-4.62,2.85-9.48,5.32-14.27,7.88-1.04.56-1.34,1.2-1.33,2.34.03,30.02.03,60.05.02,90.07,0,.55-.09,1.11-.14,1.66l-.55.03c-.07-.48-.2-.96-.2-1.44-.01-8.8-.01-17.59-.01-26.39,0-21.47.01-42.94-.03-64.41,0-1.21.39-1.85,1.44-2.42,5.84-3.15,11.64-6.37,17.46-9.57.36-.2.72-.42,1-.87-.38-.02-.76-.06-1.13-.06-35.66,0-71.32,0-106.99.02-.77,0-1.6.17-2.31.46-11.4,4.65-22.78,9.34-34.16,14.02-.31.13-.6.3-.86.68.5,0,1,0,1.51,0,39.5,0,79,0,118.5,0,.44,0,.88.02,1.32,0,.76-.04,1.08.3,1.08,1.07-.03,3.47.33,2.94-2.79,2.94-36.62,0-73.24,0-109.86,0q-1.77,0-1.77,1.71c0,22.47,0,44.94,0,67.41q0,1.71,1.77,1.71c35.26,0,70.52,0,105.79,0q1.65,0,1.65-1.59c0-7.76-.02-15.51.02-23.27,0-1.02-.22-1.41-1.32-1.37-2.44.08-4.88.02-7.32.03q-1.52,0-1.53,1.6c0,6.72,0,13.43,0,20.15,0,1.76,0,1.77-1.7,1.74-4.4-.07-8.79-.17-13.19-.19-1.05,0-1.37-.38-1.39-1.41-.11-6.79-.29-13.59-.4-20.38-.02-.97-.28-1.32-1.29-1.29-2.64.07-5.28.07-7.91,0-1.03-.03-1.26.35-1.26,1.31-.04,6.56-.13,13.11-.2,19.67-.02,1.58-.03,1.59-1.63,1.59-4.24,0-8.48-.03-12.71.02-1.1.01-1.46-.35-1.45-1.45.04-6.52,0-13.03.04-19.55,0-1.05-.26-1.38-1.34-1.35-2.84.07-5.68.06-8.51,0-.98-.02-1.3.26-1.29,1.27.04,6.56.02,13.11.02,19.67,0,1.6-.02,1.63-1.59,1.63-4.36,0-8.72,0-13.07,0-1.56,0-1.58-.02-1.58-1.64,0-6.56-.04-13.11.03-19.67.01-1.26-.37-1.55-1.55-1.51-2.56.09-5.12.07-7.67,0-.98-.03-1.2.32-1.2,1.24.03,6.64.02,13.27.02,19.91q0,1.66-1.68,1.66c-1,0-2-.01-3,0-.71.01-1.04-.3-1.01-1.01.01-.28,0-.56,0-.84,0-18.43,0-36.86,0-55.29q0-1.8,1.78-1.81,3.2,0,3.2,3.14c0,5.72,0,11.43,0,17.15q0,1.53,1.59,1.53c2.64,0,5.28-.06,7.92.03,1.15.04,1.39-.37,1.38-1.43-.04-6.52-.02-13.03-.02-19.55,0-1.57.02-1.59,1.63-1.59,4.4,0,8.8.03,13.19-.02,1.11-.01,1.45.36,1.45,1.45-.04,6.84,0,13.67-.04,20.51,0,1.05.27,1.38,1.34,1.35,2.52-.08,5.04-.07,7.55,0,.99.02,1.29-.27,1.29-1.28-.04-6.56-.02-13.11-.02-19.67,0-1.6.02-1.62,1.6-1.62,4.68,0,9.36,0,14.03,0q1.81,0,1.81,1.77c0,6.6.04,13.19-.03,19.79-.01,1.27.39,1.54,1.56,1.5,2.48-.08,4.96-.09,7.43,0,1.19.04,1.45-.37,1.44-1.49-.05-6.8-.03-13.59-.02-20.39,0-1.65,0-1.65,1.69-1.65,4.36,0,8.72.03,13.07-.02,1.16-.01,1.51.38,1.51,1.52-.04,6.8,0,13.59-.05,20.39,0,1.1.3,1.44,1.4,1.41,2.6-.08,5.2-.06,7.79,0,.95.02,1.23-.27,1.22-1.22-.04-6.84-.02-13.67-.01-20.51,0-.46.13-.92.19-1.38.15,0,.29,0,.44,0,.08.38.24.75.24,1.13.01,7.2,0,14.39.02,21.59,0,.92-.31,1.28-1.25,1.27-3.2-.04-6.4-.05-9.59,0-1.09.02-1.35-.43-1.35-1.43.03-6.8,0-13.59.04-20.39,0-1.12-.24-1.52-1.44-1.5-3.88.07-7.76.07-11.63,0-1.19-.02-1.44.38-1.44,1.5.05,6.8.03,13.59.02,20.39,0,1.64,0,1.65-1.69,1.65-3.04,0-6.08-.03-9.12.02-1.05.02-1.39-.36-1.38-1.4.03-6.76,0-13.51.04-20.27,0-1.1-.3-1.42-1.41-1.4-4.36.06-8.72.05-13.07,0-.95,0-1.23.27-1.22,1.22.04,6.6.02,13.19.02,19.79,0,1.53-.03,1.56-1.54,1.56-2.92,0-5.84,0-8.76,0-1.61,0-1.63-.02-1.63-1.59,0-6.76-.02-13.51.02-20.27,0-1.05-.21-1.46-1.37-1.44-3.92.07-7.84.07-11.75,0-1.16-.02-1.38.38-1.37,1.44.04,6.52.02,13.03.02,19.55,0,1.57-.02,1.59-1.63,1.59-3.2,0-6.4-.04-9.59.02-1.11.02-1.45-.36-1.44-1.46.04-6.32-.03-12.63.06-18.95.02-1.34-.49-1.5-1.6-1.47-1,.03-1.66-.02-1.66,1.4.05,18.15.04,36.3.01,54.45,0,1.05.26,1.38,1.34,1.35,2.59-.06,2.59,0,2.59-2.6,0-6.24.02-12.47-.02-18.71,0-1.13.32-1.56,1.5-1.53,3.08.07,6.16.07,9.23,0,1.19-.03,1.49.43,1.48,1.54-.04,6.6.02,13.19-.05,19.79-.01,1.26.38,1.53,1.56,1.5,3.88-.07,7.76-.07,11.63,0,1.09.02,1.33-.34,1.32-1.37-.04-6.56-.02-13.11-.02-19.67,0-1.51.03-1.54,1.56-1.54,3.32,0,6.64.03,9.95-.02,1.04-.02,1.39.34,1.39,1.39-.03,6.56,0,13.11-.04,19.67,0,.98.26,1.31,1.27,1.29,3.8-.05,7.6-.06,11.39,0,1.03.02,1.37-.24,1.37-1.32.02-6.52.12-13.03.19-19.55q.02-1.69,1.65-1.7c3.04,0,6.08.04,9.11-.02,1.12-.02,1.43.39,1.45,1.47.1,6.76.29,13.51.39,20.26.02,1.03.28,1.37,1.35,1.37,3.8,0,7.59.11,11.39.16,1.96.03,1.77.22,1.77-1.81,0-6.64,0-13.27,0-19.91q0-1.76,1.7-1.76c2.96,0,5.92.03,8.88-.02,1.06-.02,1.38.37,1.37,1.4-.03,8.32-.02,16.63-.02,24.95q0,1.67-1.66,1.67c-22.83,0-45.66,0-68.48,0-12.83,0-25.67.01-38.5-.02-1.13,0-1.49.27-1.48,1.45.05,7.85.03,15.7.02,23.55q0,1.64-1.69,1.65c-.8,0-1.6-.05-2.4.01-1.06.08-1.39-.35-1.38-1.39.04-4.36.02-8.72.02-13.07,0-3.88.03-7.76-.02-11.63-.01-1.09.32-1.47,1.44-1.46,3.14.03,3.14-.01,3.14-3.2,0-22.19,0-44.38,0-66.57q0-1.93,1.88-1.93c37.02,0,74.04,0,111.06,0,1.49,0,1.68-.17,1.44-1.52-.05-.27-.43-.59-.72-.67-.41-.12-.87-.03-1.31-.03-39.98,0-79.96,0-119.94,0-.91,0-1.81-.1-2.72-.15-.05-.13-.1-.25-.16-.38Zm208.24-15.72c.04-.07.07-.15.11-.22-.3-.19-.59-.41-.9-.57-8.86-4.79-17.71-9.58-26.59-14.32-.45-.24-1.26-.21-1.72.04-8.28,4.5-16.54,9.05-24.8,13.6-.28.15-.53.36-.79.55,1.05.22,2.01.15,2.95.24,1.62.15,3.02-.33,4.44-1.08,5.83-3.08,11.7-6.06,17.54-9.13.91-.48,1.63-.5,2.56-.01,6.73,3.52,13.48,6.98,20.23,10.45.38.2.81.43,1.22.44,1.91.05,3.83.02,5.74.02ZM41.1,120.39c0-3.6.02-7.2,0-10.79-.02-2.54.37-2.09-2.24-2.21-1.2-.06-1.44.38-1.44,1.5.05,7.32.02,14.63.02,21.95,0,2.33,0,2.27,2.37,2.34,1.11.03,1.33-.37,1.31-1.38-.05-3.8-.02-7.6-.02-11.39Zm344.47,0c0-3.6.02-7.2,0-10.79-.02-2.54.37-2.09-2.24-2.21-1.2-.06-1.44.38-1.44,1.5.05,7.32.02,14.63.03,21.95,0,2.33,0,2.27,2.37,2.34,1.11.03,1.33-.37,1.31-1.38-.05-3.8-.02-7.6-.02-11.39Z"/>
  <path class="cls-1" d="m258.9,32.42c-.55.05-1.1.14-1.66.14-25.43,0-50.85,0-76.28,0-4.84,0-9.68.03-14.51-.02-1.08-.01-1.47.26-1.42,1.39.11,2.37-.24,2.05,2.05,2.05,29.54,0,59.09,0,88.63,0q1.93,0,1.93,1.89c0,25.91,0,51.81,0,77.72q0,1.89-1.93,1.89c-2.16,0-4.32,0-6.48,0-1.59,0-1.61-.02-1.61-1.61,0-16.31,0-32.62,0-48.93,0-6.56-.02-13.11.02-19.67,0-.98-.26-1.3-1.27-1.29-4.36.05-8.71.02-13.07.02q-1.57,0-1.57,1.55c0,22.79,0,45.58,0,68.36,0,.36.11.78-.03,1.06-.19.38-.58.93-.9.94-3.36.07-6.72.07-10.07,0-.31,0-.72-.56-.89-.94-.15-.33-.03-.79-.03-1.19,0-23.07,0-46.13,0-69.2q0-1.55-1.57-1.55c-4.64,0-9.28.04-13.91-.03-1.13-.02-1.39.34-1.39,1.42.03,22.87.02,45.73.02,68.6q0,1.97-1.97,1.97c-2.4,0-4.8,0-7.2,0q-1.81,0-1.81-1.77c0-20.39,0-40.78,0-61.17,0-2.52-.05-5.04.02-7.56.04-1.12-.25-1.52-1.44-1.5-4.52.07-9.04.07-13.55,0-1.2-.02-1.43.39-1.43,1.5.03,20.23.02,40.46.02,60.69,0,3.08,0,6.16,0,9.23,0,1.49-.04,1.52-1.57,1.53-2.48,0-4.96.01-7.44,0-.43,0-.87-.13-1.3-.19,0-.14-.02-.29-.03-.43.4-.09.81-.25,1.21-.25,2.28-.02,4.56-.07,6.84.01,1.09.04,1.42-.27,1.42-1.39-.04-13.27-.02-26.55-.02-39.82,0-10.03,0-20.07,0-30.1,0-1.61.02-1.63,1.59-1.63,5,0,9.99,0,14.99,0,1.57,0,1.59.02,1.59,1.63,0,22.87,0,45.74,0,68.6q0,1.73,1.75,1.73c2.04,0,4.08-.06,6.12.02,1.08.05,1.33-.32,1.33-1.36-.03-11.51-.02-23.03-.02-34.54,0-11.47,0-22.95,0-34.42,0-1.66,0-1.67,1.67-1.67,5.04,0,10.07,0,15.11,0q1.87,0,1.87,1.83c0,23.15,0,46.29,0,69.44q0,1.64,1.6,1.65c2.32,0,4.64,0,6.96,0q1.58,0,1.58-1.54c0-16.83,0-33.66,0-50.49,0-6.08,0-12.15,0-18.23q0-1.69,1.64-1.7c4.8,0,9.59,0,14.39,0q1.65,0,1.66,1.68c0,22.71,0,45.42,0,68.12q0,1.68,1.68,1.68c1.72,0,3.44-.07,5.16.02,1.12.06,1.4-.32,1.4-1.41-.04-13.39-.02-26.79-.02-40.18,0-12.23-.02-24.47.03-36.7,0-1.16-.32-1.46-1.47-1.46-29.74.03-59.49.02-89.23.02q-1.92,0-1.92-1.9,0-3.31,3.26-3.31c29.94,0,59.89,0,89.83,0,.55,0,1.1.09,1.65.14,0,.2,0,.41,0,.61Z"/>
  <path class="cls-1" d="m163.91,139.61c-.37.06-.73.17-1.1.17-3.48.02-6.96-.01-10.43.03-.89.01-.95-.41-.95-1.1.02-7.24,0-14.47.05-21.71,0-1.15-.3-1.5-1.46-1.47-2.8.08-5.6.07-8.39,0-.99-.02-1.29.28-1.28,1.28.04,7.12.02,14.23.02,21.35q0,1.62-1.57,1.62c-4.36,0-8.72-.02-13.07.02-.89,0-1.16-.24-1.16-1.14.04-7.24,0-14.47.05-21.71,0-1.07-.24-1.46-1.38-1.43-2.76.08-5.52.08-8.27,0-1.13-.03-1.5.27-1.49,1.45.05,7,.03,13.99.03,20.99,0,1.82,0,1.82-1.84,1.82-4.44,0-8.87-.02-13.31.02-.9,0-1.14-.23-1.13-1.14.05-7.32.01-14.63.06-21.95,0-1-.36-1.2-1.25-1.19-2.88.04-5.76.06-8.63,0-1.04-.02-1.25.36-1.25,1.31.04,7.32.03,14.63.04,21.95,0,.27-.04.54-.07.92-.42.02-.81.07-1.19.07-4.4,0-8.8-.02-13.19.03-.94.01-1.13-.31-1.12-1.17.03-7.24,0-14.47.05-21.71,0-1.12-.33-1.42-1.42-1.4-2.84.07-5.68.06-8.51,0-.97-.02-1.21.3-1.21,1.23.03,7.16,0,14.31.04,21.47,0,1.17-.29,1.58-1.54,1.58-18.83-.04-37.66-.03-56.49-.03-.49,0-.97-.1-1.46-.15-.02-.16-.03-.33-.05-.49.47-.08.93-.24,1.4-.24,10.23-.01,20.47-.01,30.7-.01,8.39,0,16.79-.02,25.18.02,1.04,0,1.36-.25,1.36-1.33-.05-7.12-.03-14.23-.02-21.35,0-1.54.04-1.57,1.52-1.57,3.32,0,6.64.04,9.95-.02,1.12-.02,1.44.38,1.43,1.47-.04,7.16,0,14.31-.04,21.47,0,1.07.3,1.36,1.35,1.34,3.72-.06,7.44-.06,11.15,0,1,.01,1.28-.3,1.27-1.29-.04-7.12-.02-14.23-.02-21.35,0-1.6.02-1.61,1.6-1.62,3.24,0,6.48,0,9.71,0,1.56,0,1.57.01,1.57,1.64,0,7.04.04,14.07-.03,21.11-.01,1.27.39,1.52,1.56,1.5,3.88-.07,7.76-.07,11.63,0,1.1.02,1.32-.35,1.32-1.37-.04-7.08-.02-14.15-.02-21.23,0-1.66,0-1.66,1.68-1.66,3.24,0,6.48.04,9.71-.02,1.14-.02,1.53.34,1.52,1.5-.04,7.12,0,14.23-.04,21.35,0,1.06.24,1.45,1.38,1.43,3.72-.07,7.44-.07,11.15,0,1.13.02,1.5-.26,1.49-1.44-.05-7.04-.03-14.07-.03-21.11q0-1.7,1.75-1.7c3.24,0,6.48.04,9.71-.02,1.11-.02,1.45.36,1.44,1.46-.04,7.16,0,14.31-.04,21.47,0,1.05.28,1.37,1.34,1.35,3-.07,6-.03,8.99-.01.42,0,.84.14,1.26.22,0,.16-.01.33-.02.49Z"/>
  <path class="cls-1" d="m324.76,139.79c-5.18,0-10.22-.01-15.25.01-.81,0-.92-.45-.93-1.06-.01-1.28-.01-2.56-.01-3.84,0-5.96-.04-11.91.03-17.87.02-1.27-.38-1.54-1.56-1.5-2.76.08-5.52.06-8.27,0-.95-.02-1.33.19-1.32,1.24.04,7.24,0,14.47.06,21.71,0,1.09-.3,1.34-1.34,1.32-4.32-.06-8.64-.07-12.95,0-1.27.02-1.53-.45-1.53-1.6.04-7.12,0-14.23.04-21.35,0-1.07-.3-1.36-1.35-1.34-2.88.07-5.76.06-8.63,0-.9-.02-1.16.28-1.15,1.16.03,7.28,0,14.55.05,21.83,0,1-.23,1.3-1.26,1.28-3.32-.07-6.64-.02-9.95-.04-.43,0-.86-.13-1.29-.2,0-.14-.01-.29-.02-.43.41-.08.81-.24,1.22-.24,3.04-.02,6.08-.05,9.11.01,1.01.02,1.28-.3,1.28-1.29-.04-7.12-.02-14.23-.02-21.35,0-1.59.02-1.61,1.6-1.61,3.24,0,6.48,0,9.71,0,1.56,0,1.57.01,1.57,1.65,0,7.04.04,14.07-.03,21.11-.01,1.27.39,1.52,1.56,1.5,3.68-.07,7.36-.07,11.03,0,1.19.02,1.45-.37,1.44-1.49-.05-7.04-.03-14.07-.02-21.11q0-1.65,1.68-1.66c3.24,0,6.48.04,9.71-.02,1.15-.02,1.52.35,1.52,1.51-.04,7.12,0,14.23-.04,21.35,0,1.07.25,1.44,1.38,1.42,3.88-.07,7.76-.07,11.63,0,1.13.02,1.5-.27,1.49-1.45-.05-7.04-.03-14.07-.03-21.11q0-1.69,1.64-1.7c3.28,0,6.56.04,9.83-.02,1.12-.02,1.44.38,1.44,1.46-.04,7.16,0,14.31-.04,21.47,0,1.06.28,1.36,1.34,1.34,3.72-.06,7.44-.06,11.15,0,1,.01,1.29-.28,1.28-1.28-.04-7.12-.02-14.23-.02-21.35,0-1.6.02-1.62,1.6-1.62,3.24,0,6.48,0,9.71,0,1.56,0,1.58.01,1.58,1.64,0,7.08.03,14.15-.03,21.23,0,1.14.35,1.38,1.42,1.38,18.51-.03,37.02-.02,55.53-.02.55,0,1.1.09,1.65.14,0,.19.02.38.03.56-.52.06-1.04.18-1.56.18-13.99.01-27.98,0-41.97,0-4.84,0-9.67-.04-14.51.03-1.2.02-1.48-.42-1.47-1.52.04-7.12,0-14.23.04-21.35,0-1.1-.29-1.44-1.4-1.41-2.84.08-5.68.06-8.51,0-.94-.02-1.23.26-1.23,1.22.04,7.24,0,14.47.05,21.71,0,1.04-.22,1.37-1.31,1.35-4.28-.07-8.55-.03-12.83-.03-.43,0-.86,0-1.42,0v-1.77c0-7.04-.02-14.07.02-21.11,0-1.02-.22-1.4-1.32-1.37-2.84.08-5.68.08-8.51,0-1.11-.03-1.31.38-1.31,1.38.05,7.31.04,14.63.04,21.94,0,.27-.05.54-.08.93Z"/>
</svg>