<?xml version="1.0" encoding="UTF-8"?>
<svg id="Livello_1" data-name="Livello 1" xmlns="http://www.w3.org/2000/svg" viewBox="0 0 418.42 182.49">
  <defs>
    <style>
      .cls-1 {
        stroke-width: 0px;
      }
    </style>
  </defs>
  <path class="cls-1" d="m231.84,115.55c-16.83-16.82-33.65-33.65-50.48-50.47.07-.12.13-.23.2-.35.4.18.87.28,1.17.57,1,.92,1.94,1.91,2.9,2.87,15.63,15.63,31.27,31.27,46.9,46.9.11.11.25.21.33.34.19.32.36.66.54.99-.35.12-.69.31-1.05.36-.51.06-1.04,0-1.56.02-3.83.15-7.66.29-11.49.49-1.01.05-1.72-.29-2.42-1-13.95-14.21-27.91-28.4-41.87-42.59-.5-.51-.95-1.06-1.48-1.66-.53.47-.89.77-1.24,1.09-16.59,15.21-33.18,30.42-49.74,45.66-.89.82-1.78,1.15-2.98,1.15-9.87-.04-19.75,0-29.62-.04-1.12,0-1.5.25-1.49,1.44.04,19.15.03,38.3,0,57.45,0,1.05.22,1.44,1.37,1.44,9.11-.05,18.23-.05,27.35,0,1.16,0,1.37-.39,1.37-1.44-.03-17.07-.03-34.14-.01-51.21,0-2.59-.41-2.3,2.29-2.3,43.54-.01,87.07,0,130.61,0,23.83,0,47.66,0,71.48,0,1.86,0,1.84,0,1.84,1.82,0,17.11.01,34.22-.03,51.33,0,1.25.52,1.32,1.49,1.32,30.14-.02,60.29-.01,90.43,0,.57,0,1.13.08,1.7.12.02.18.03.35.05.53-.47.08-.93.23-1.4.24-5.64.02-11.27.01-16.91.01-24.95,0-49.89,0-74.84.02-1.11,0-1.41-.32-1.41-1.42.03-17.15.02-34.3.02-51.45q0-1.6-1.63-1.61c-67.08,0-134.17,0-201.25,0q-1.55,0-1.55,1.57c0,17.15,0,34.3,0,51.45q0,1.91-1.94,1.91c-9.36,0-18.71,0-28.07,0q-1.83,0-1.84-1.78c0-19.51,0-39.02,0-58.53,0-1.74.02-1.76,1.73-1.76,7.72,0,15.43-.02,23.15.02.95,0,1.65-.28,2.35-.91,19.24-17.34,38.5-34.67,57.75-52q1.37-1.23,2.66.06c16.23,16.23,32.46,32.45,48.66,48.7.74.75,1.48,1.07,2.52,1.03,1.75-.07,3.51-.02,5.26-.02.05-.11.11-.21.16-.32Zm-58.06-49.37c-19.42,17.48-38.88,34.99-58.33,52.5.05.1.09.2.14.31,1.3,0,2.61-.07,3.9.02,1.09.07,1.86-.31,2.65-1.04,16.62-15.28,33.26-30.54,49.9-45.81q1.41-1.3,2.73.04c14.16,14.39,28.31,28.78,42.47,43.16.33.34.71.87,1.08.89,1.83.09,3.67.04,5.57.04-16.74-16.74-33.35-33.35-50.12-50.11Z"/>
  <path class="cls-1" d="m0,181.74c.55-.05,1.1-.14,1.66-.14,24.59,0,49.17,0,73.76-.01,2.41,0,2.11.32,2.11-2.08,0-18.79,0-37.58.02-56.37,0-.95-.15-1.72-.94-2.31-1.46-1.1-2.33-2.47-1.97-4.4.13-.69-.28-.89-.92-.87-1.28.03-2.56.03-3.84-.01-.27,0-.61-.17-.77-.38-.08-.1.14-.48.29-.7.13-.2.33-.34.5-.51,9.24-9.24,18.49-18.48,27.72-27.74.73-.73,1.47-1.06,2.52-1.06,12.51.03,25.03.01,37.54.04.9,0,1.56-.23,2.23-.86,27.07-26.01,54.15-51.99,81.24-77.99q1.73-1.66,3.43.11c2.32,2.43,4.61,4.89,6.97,7.28,13.95,14.09,27.92,28.14,41.87,42.24,17.4,17.59,34.78,35.21,52.17,52.82.2.2.43.37.58.61.16.25.23.55.35.83-.28.11-.55.26-.84.31-.31.05-.64.01-.96.01-29.46,0-58.93,0-88.39.02-1.29,0-2.22-.35-3.16-1.27-15.6-15.33-31.23-30.62-46.84-45.93-.33-.32-1.22-.61-.33-1.43.32.29.65.57.95.86,15.63,15.3,31.25,30.59,46.86,45.91.68.66,1.35.97,2.31.97,29.14-.02,58.29-.02,87.43-.02h1.27c.05-.09.09-.19.13-.28-33.99-34.42-67.99-68.84-102.09-103.37-.3.26-.63.52-.93.81-27.11,26.02-54.23,52.03-81.31,78.08-.92.88-1.76,1.22-2.99,1.21-12.43-.04-24.87-.02-37.3-.04-.85,0-1.49.18-2.12.81-8.88,8.93-17.79,17.82-26.7,26.73-.27.27-.51.56-.98,1.08,1.48,0,2.66.03,3.84-.01.87-.03,1.28.3,1.2,1.19-.02.2.03.4,0,.6-.26,1.53.28,2.72,1.52,3.62,1.16.83,1.39,1.95,1.39,3.33-.04,19.11-.03,38.22-.03,57.33q0,1.76-1.81,1.77c-24.99,0-49.97,0-74.96,0-.55,0-1.1-.09-1.65-.14,0-.2,0-.41,0-.61Z"/>
  <path class="cls-1" d="m335.66,101.61C301.57,67.52,267.74,33.69,234.05,0c.19.14.62.39.96.73,9.48,9.46,18.94,18.93,28.41,28.4,23.66,23.66,47.31,47.31,70.96,70.97.38.39.71.83,1.28,1.51Z"/>
  <path class="cls-1" d="m345.21,164.13c-.84-1.05-.93-54.18-.04-55.31.08.47.23.94.23,1.4.01,10.31.01,20.62.01,30.92,0,7.07,0,14.14,0,21.21,0,.48-.1.97-.19,1.76Z"/>
</svg>