<?xml version="1.0" encoding="UTF-8"?>
<svg id="Livello_1" data-name="Livello 1" xmlns="http://www.w3.org/2000/svg" viewBox="0 0 328.49 329.41">
  <defs>
    <style>
      .cls-1 {
        fill: #fff;
        stroke: #fff;
        stroke-miterlimit: 10;
      }
    </style>
  </defs>
  <path class="cls-1" d="m78.32,25.02c58.85-37.49,147.07-34.69,205.21,27.28,57.74,61.55,56.22,151.19,12.88,209.21-.92-.38-.45-.87-.12-1.37,1.94-2.89,3.96-5.72,5.8-8.67,12.59-20.17,20.43-42.04,23.56-65.61,11.11-83.67-44.14-162.54-126.5-180.61-14.85-3.26-29.87-4.52-45.04-3.51-26.36,1.75-50.89,9.41-73.57,22.97-.66.39-1.3,1.05-2.22.31Z"/>
  <path class="cls-1" d="m247.79,305.87c-62.45,37.82-150.89,30.53-206.42-32.73C-13.62,210.5-9.6,123.04,32.5,67.35c.77.56.29,1.06-.05,1.58-3,4.63-6.19,9.14-8.95,13.91-11.27,19.4-18.21,40.28-20.87,62.57-6.25,52.37,13.19,104.72,52.26,140.18,23.76,21.57,51.57,35.09,83.26,40.21,38.34,6.19,74.35-.79,108.03-20.03.48-.27,1.09-1.07,1.62.11Z"/>
  <path class="cls-1" d="m242.78,300.99c-57.81,34.52-143.36,29.27-197.44-33.53C-6.71,207.02-1.38,124.36,36.62,73.15c.91.38.37.84.08,1.3-2.68,4.22-5.52,8.34-8,12.67-11.1,19.44-17.86,40.32-19.83,62.62-3.73,42.34,7.57,80.39,34.16,113.5,24.24,30.18,55.82,48.7,93.91,55.56,36.89,6.64,71.73.27,104.43-17.98q.78-.43,1.39.18Z"/>
  <path class="cls-1" d="m291.76,255.69c.15-.43.22-.91.45-1.29,3.55-5.93,7.43-11.68,10.63-17.79,9.8-18.72,15.55-38.69,17.03-59.78,2.9-41.4-8.52-78.54-34.55-110.82-24.24-30.06-55.75-48.54-93.75-55.39-37.02-6.67-71.97-.25-104.74,18.14-.48.27-1.01.83-1.49-.02C134.64-1.93,217.37-5.03,275.63,53.82c59.57,60.17,56.25,148.33,16.55,201.98-.14-.04-.28-.07-.43-.11Z"/>
  <path class="cls-1" d="m51.63,46.92c-13.37,3.74-26.64,7.66-39.96,11.36-.07-.17-.14-.34-.2-.52.33-.19.63-.45.98-.56,12.9-3.7,25.8-7.38,38.7-11.08.96-.27,1.35-.05,1.49,1,1.23,9.06,2.51,18.11,3.77,27.17.26,1.9.53,3.8.77,5.7.05.35,0,.72,0,1.07-.14.03-.28.06-.41.08-.13-.35-.34-.68-.39-1.04-.8-5.57-1.58-11.15-2.36-16.72-.73-5.26-1.46-10.52-2.19-15.78-.03-.19-.11-.36-.21-.68Z"/>
  <path class="cls-1" d="m276.54,283.96c13.43-3.83,26.73-7.62,40.04-11.42.07.17.14.35.21.52-.32.19-.61.47-.96.56-12.9,3.7-25.8,7.38-38.7,11.08-.93.27-1.36.12-1.51-.97-1.23-9.06-2.51-18.11-3.77-27.17-.27-1.94-.54-3.88-.78-5.82-.04-.33.06-.68.36-1.03,2,11.32,3.41,22.7,5.11,34.23Z"/>
  <path class="cls-1" d="m13.93,62.92c.36-.17.71-.4,1.1-.51,10.34-3.18,20.69-6.35,31.03-9.52,1.38-.42,1.59-.29,1.77,1.15,1.11,8.79,2.21,17.58,3.31,26.38.1.83.22,1.66.3,2.5.03.32-.03.65-.05.97-.13.02-.26.05-.38.07-.13-.35-1.8-12.21-2.5-17.79-.52-4.11-1.03-8.23-1.57-12.51-.67.16-1.24.25-1.79.42-9.89,3.02-19.78,6.06-29.67,9.08-.45.14-.94.17-1.41.25l-.14-.48Z"/>
  <path class="cls-1" d="m277.51,246.93c1.26,10.05,2.53,20.1,3.82,30.38,11.04-3.37,21.91-6.7,32.78-10.02.07.17.15.33.22.5-.31.2-.59.5-.94.6-10.46,3.22-20.92,6.42-31.38,9.63-.95.29-1.46.12-1.6-1.03-1.17-9.67-2.4-19.33-3.6-29-.04-.34.05-.7.09-1.04l.6-.02Z"/>
</svg>